<mxfile host="Electron" agent="Mozilla/5.0 (Macintosh; Intel Mac OS X 10_15_7) AppleWebKit/537.36 (KHTML, like Gecko) draw.io/24.7.17 Chrome/128.0.6613.36 Electron/32.0.1 Safari/537.36" version="24.7.17">
  <diagram id="C5RBs43oDa-KdzZeNtuy" name="Page-1">
    <mxGraphModel dx="1440" dy="984" grid="0" gridSize="10" guides="1" tooltips="1" connect="1" arrows="1" fold="1" page="1" pageScale="1" pageWidth="1100" pageHeight="850" math="0" shadow="0">
      <root>
        <mxCell id="WIyWlLk6GJQsqaUBKTNV-0" />
        <mxCell id="WIyWlLk6GJQsqaUBKTNV-1" parent="WIyWlLk6GJQsqaUBKTNV-0" />
        <mxCell id="dkhZk1nOKH57T96soNZL-111" style="rounded=0;orthogonalLoop=1;jettySize=auto;html=1;entryX=0.5;entryY=1;entryDx=0;entryDy=0;dashed=1;endArrow=block;endFill=0;endSize=12;" parent="WIyWlLk6GJQsqaUBKTNV-1" source="dkhZk1nOKH57T96soNZL-88" target="dkhZk1nOKH57T96soNZL-91" edge="1">
          <mxGeometry relative="1" as="geometry" />
        </mxCell>
        <mxCell id="dkhZk1nOKH57T96soNZL-114" style="rounded=0;orthogonalLoop=1;jettySize=auto;html=1;entryX=1;entryY=0;entryDx=0;entryDy=0;endArrow=open;endFill=0;endSize=12;startSize=14;startArrow=diamondThin;startFill=0;" parent="WIyWlLk6GJQsqaUBKTNV-1" source="dkhZk1nOKH57T96soNZL-88" target="dkhZk1nOKH57T96soNZL-89" edge="1">
          <mxGeometry relative="1" as="geometry" />
        </mxCell>
        <mxCell id="dkhZk1nOKH57T96soNZL-223" value="&lt;font style=&quot;font-size: 15px;&quot;&gt;1..*&lt;/font&gt;" style="edgeLabel;html=1;align=center;verticalAlign=middle;resizable=0;points=[];container=0;" parent="dkhZk1nOKH57T96soNZL-114" vertex="1" connectable="0">
          <mxGeometry x="0.1908" y="6" relative="1" as="geometry">
            <mxPoint x="-3" y="8" as="offset" />
          </mxGeometry>
        </mxCell>
        <mxCell id="dkhZk1nOKH57T96soNZL-115" style="rounded=0;orthogonalLoop=1;jettySize=auto;html=1;entryX=0;entryY=0;entryDx=0;entryDy=0;endSize=12;endArrow=open;endFill=0;" parent="WIyWlLk6GJQsqaUBKTNV-1" target="dkhZk1nOKH57T96soNZL-90" edge="1">
          <mxGeometry relative="1" as="geometry">
            <mxPoint x="633.6935749588138" y="588.5222169135211" as="sourcePoint" />
            <mxPoint x="705.5551894563428" y="604.7362637362637" as="targetPoint" />
          </mxGeometry>
        </mxCell>
        <mxCell id="dkhZk1nOKH57T96soNZL-88" value="Airport" style="html=1;whiteSpace=wrap;container=0;" parent="WIyWlLk6GJQsqaUBKTNV-1" vertex="1">
          <mxGeometry x="498.35420098846794" y="548.1318681318681" width="131.74629324546953" height="55.49450549450549" as="geometry" />
        </mxCell>
        <mxCell id="dkhZk1nOKH57T96soNZL-110" style="rounded=0;orthogonalLoop=1;jettySize=auto;html=1;dashed=1;endArrow=block;endFill=0;endSize=12;entryX=0;entryY=0.5;entryDx=0;entryDy=0;exitX=0.25;exitY=0;exitDx=0;exitDy=0;" parent="WIyWlLk6GJQsqaUBKTNV-1" source="dkhZk1nOKH57T96soNZL-89" target="dkhZk1nOKH57T96soNZL-91" edge="1">
          <mxGeometry relative="1" as="geometry" />
        </mxCell>
        <mxCell id="dkhZk1nOKH57T96soNZL-221" style="rounded=0;orthogonalLoop=1;jettySize=auto;html=1;exitX=0.389;exitY=0.981;exitDx=0;exitDy=0;exitPerimeter=0;entryX=0.5;entryY=1;entryDx=0;entryDy=0;edgeStyle=orthogonalEdgeStyle;endSize=12;endArrow=open;endFill=0;curved=1;" parent="WIyWlLk6GJQsqaUBKTNV-1" source="dkhZk1nOKH57T96soNZL-89" target="dkhZk1nOKH57T96soNZL-90" edge="1">
          <mxGeometry relative="1" as="geometry">
            <mxPoint x="407.32948929159807" y="705.7362637362637" as="sourcePoint" />
            <mxPoint x="682.7990115321253" y="705.7362637362637" as="targetPoint" />
            <Array as="points">
              <mxPoint x="286.36243822075784" y="769" />
              <mxPoint x="824.1268533772653" y="769" />
            </Array>
          </mxGeometry>
        </mxCell>
        <mxCell id="dkhZk1nOKH57T96soNZL-232" value="1" style="edgeLabel;html=1;align=center;verticalAlign=middle;resizable=0;points=[];container=0;fontSize=15;" parent="dkhZk1nOKH57T96soNZL-221" vertex="1" connectable="0">
          <mxGeometry x="0.8229" y="-3" relative="1" as="geometry">
            <mxPoint x="-18" y="-48" as="offset" />
          </mxGeometry>
        </mxCell>
        <mxCell id="dkhZk1nOKH57T96soNZL-89" value="Runway" style="html=1;whiteSpace=wrap;container=0;" parent="WIyWlLk6GJQsqaUBKTNV-1" vertex="1">
          <mxGeometry x="234.86161449752882" y="644.6923076923077" width="131.74629324546953" height="55.49450549450549" as="geometry" />
        </mxCell>
        <mxCell id="dkhZk1nOKH57T96soNZL-112" style="rounded=0;orthogonalLoop=1;jettySize=auto;html=1;entryX=1;entryY=0.5;entryDx=0;entryDy=0;dashed=1;endArrow=block;endFill=0;endSize=12;exitX=0.75;exitY=0;exitDx=0;exitDy=0;" parent="WIyWlLk6GJQsqaUBKTNV-1" source="dkhZk1nOKH57T96soNZL-90" target="dkhZk1nOKH57T96soNZL-91" edge="1">
          <mxGeometry relative="1" as="geometry" />
        </mxCell>
        <mxCell id="dkhZk1nOKH57T96soNZL-90" value="Flight" style="html=1;whiteSpace=wrap;container=0;" parent="WIyWlLk6GJQsqaUBKTNV-1" vertex="1">
          <mxGeometry x="758.2537067545305" y="644.6923076923077" width="131.74629324546953" height="55.49450549450549" as="geometry" />
        </mxCell>
        <mxCell id="dkhZk1nOKH57T96soNZL-91" value="«interface»&lt;br&gt;&lt;b&gt;Writable&lt;/b&gt;" style="html=1;whiteSpace=wrap;container=0;" parent="WIyWlLk6GJQsqaUBKTNV-1" vertex="1">
          <mxGeometry x="501.94728171334435" y="394.967032967033" width="131.74629324546953" height="55.49450549450549" as="geometry" />
        </mxCell>
        <mxCell id="dkhZk1nOKH57T96soNZL-92" value="Event" style="html=1;whiteSpace=wrap;container=0;" parent="WIyWlLk6GJQsqaUBKTNV-1" vertex="1">
          <mxGeometry x="163" y="407.17582417582423" width="131.74629324546953" height="55.49450549450549" as="geometry" />
        </mxCell>
        <mxCell id="dkhZk1nOKH57T96soNZL-93" value="EventLog" style="html=1;whiteSpace=wrap;container=0;" parent="WIyWlLk6GJQsqaUBKTNV-1" vertex="1">
          <mxGeometry x="163" y="260.6703296703297" width="131.74629324546953" height="55.49450549450549" as="geometry" />
        </mxCell>
        <mxCell id="dkhZk1nOKH57T96soNZL-96" value="JsonWriter" style="html=1;whiteSpace=wrap;container=0;" parent="WIyWlLk6GJQsqaUBKTNV-1" vertex="1">
          <mxGeometry x="501.94728171334435" y="124.15384615384616" width="131.74629324546953" height="55.49450549450549" as="geometry" />
        </mxCell>
        <mxCell id="dkhZk1nOKH57T96soNZL-97" value="JsonReader" style="html=1;whiteSpace=wrap;container=0;" parent="WIyWlLk6GJQsqaUBKTNV-1" vertex="1">
          <mxGeometry x="505.5403624382208" y="262.8901098901099" width="131.74629324546953" height="55.49450549450549" as="geometry" />
        </mxCell>
        <mxCell id="dkhZk1nOKH57T96soNZL-218" style="rounded=0;orthogonalLoop=1;jettySize=auto;html=1;entryX=1;entryY=0.5;entryDx=0;entryDy=0;endSize=12;endArrow=open;endFill=0;" parent="WIyWlLk6GJQsqaUBKTNV-1" source="dkhZk1nOKH57T96soNZL-98" target="dkhZk1nOKH57T96soNZL-97" edge="1">
          <mxGeometry relative="1" as="geometry" />
        </mxCell>
        <mxCell id="dkhZk1nOKH57T96soNZL-229" value="1" style="edgeLabel;html=1;align=center;verticalAlign=middle;resizable=0;points=[];container=0;fontSize=15;" parent="dkhZk1nOKH57T96soNZL-218" vertex="1" connectable="0">
          <mxGeometry x="0.682" y="-3" relative="1" as="geometry">
            <mxPoint x="2" y="18" as="offset" />
          </mxGeometry>
        </mxCell>
        <mxCell id="dkhZk1nOKH57T96soNZL-219" style="rounded=0;orthogonalLoop=1;jettySize=auto;html=1;entryX=1;entryY=0.5;entryDx=0;entryDy=0;endSize=12;endArrow=open;endFill=0;" parent="WIyWlLk6GJQsqaUBKTNV-1" source="dkhZk1nOKH57T96soNZL-98" target="dkhZk1nOKH57T96soNZL-96" edge="1">
          <mxGeometry relative="1" as="geometry" />
        </mxCell>
        <mxCell id="dkhZk1nOKH57T96soNZL-228" value="1" style="edgeLabel;html=1;align=center;verticalAlign=middle;resizable=0;points=[];container=0;fontSize=15;" parent="dkhZk1nOKH57T96soNZL-219" vertex="1" connectable="0">
          <mxGeometry x="0.5769" y="-2" relative="1" as="geometry">
            <mxPoint x="-1" y="14" as="offset" />
          </mxGeometry>
        </mxCell>
        <mxCell id="dkhZk1nOKH57T96soNZL-220" style="rounded=0;orthogonalLoop=1;jettySize=auto;html=1;entryX=1;entryY=0;entryDx=0;entryDy=0;endSize=12;endArrow=open;endFill=0;startSize=14;startArrow=diamondThin;startFill=0;" parent="WIyWlLk6GJQsqaUBKTNV-1" source="dkhZk1nOKH57T96soNZL-98" target="dkhZk1nOKH57T96soNZL-88" edge="1">
          <mxGeometry relative="1" as="geometry" />
        </mxCell>
        <mxCell id="dkhZk1nOKH57T96soNZL-227" value="1" style="edgeLabel;html=1;align=center;verticalAlign=middle;resizable=0;points=[];container=0;fontSize=15;" parent="dkhZk1nOKH57T96soNZL-220" vertex="1" connectable="0">
          <mxGeometry x="0.7409" y="1" relative="1" as="geometry">
            <mxPoint x="-4" y="33" as="offset" />
          </mxGeometry>
        </mxCell>
        <mxCell id="dkhZk1nOKH57T96soNZL-98" value="AirportAppGUI" style="html=1;whiteSpace=wrap;container=0;" parent="WIyWlLk6GJQsqaUBKTNV-1" vertex="1">
          <mxGeometry x="758.2537067545305" y="62" width="131.74629324546953" height="55.49450549450549" as="geometry" />
        </mxCell>
        <mxCell id="dkhZk1nOKH57T96soNZL-214" style="rounded=0;orthogonalLoop=1;jettySize=auto;html=1;entryX=0;entryY=0.5;entryDx=0;entryDy=0;endSize=12;endArrow=open;endFill=0;" parent="WIyWlLk6GJQsqaUBKTNV-1" source="dkhZk1nOKH57T96soNZL-99" target="dkhZk1nOKH57T96soNZL-97" edge="1">
          <mxGeometry relative="1" as="geometry" />
        </mxCell>
        <mxCell id="dkhZk1nOKH57T96soNZL-230" value="1" style="edgeLabel;html=1;align=center;verticalAlign=middle;resizable=0;points=[];container=0;fontSize=15;" parent="dkhZk1nOKH57T96soNZL-214" vertex="1" connectable="0">
          <mxGeometry x="0.7295" relative="1" as="geometry">
            <mxPoint y="15" as="offset" />
          </mxGeometry>
        </mxCell>
        <mxCell id="dkhZk1nOKH57T96soNZL-216" style="rounded=0;orthogonalLoop=1;jettySize=auto;html=1;entryX=0;entryY=0.5;entryDx=0;entryDy=0;endSize=12;endArrow=open;endFill=0;" parent="WIyWlLk6GJQsqaUBKTNV-1" source="dkhZk1nOKH57T96soNZL-99" target="dkhZk1nOKH57T96soNZL-96" edge="1">
          <mxGeometry relative="1" as="geometry" />
        </mxCell>
        <mxCell id="dkhZk1nOKH57T96soNZL-231" value="1" style="edgeLabel;html=1;align=center;verticalAlign=middle;resizable=0;points=[];container=0;fontSize=15;" parent="dkhZk1nOKH57T96soNZL-216" vertex="1" connectable="0">
          <mxGeometry x="0.6423" y="1" relative="1" as="geometry">
            <mxPoint x="-4" y="8" as="offset" />
          </mxGeometry>
        </mxCell>
        <mxCell id="dkhZk1nOKH57T96soNZL-99" value="AirportApp" style="html=1;whiteSpace=wrap;container=0;" parent="WIyWlLk6GJQsqaUBKTNV-1" vertex="1">
          <mxGeometry x="234.86161449752882" y="62" width="131.74629324546953" height="55.49450549450549" as="geometry" />
        </mxCell>
        <mxCell id="dkhZk1nOKH57T96soNZL-237" value="" style="edgeStyle=orthogonalEdgeStyle;rounded=0;orthogonalLoop=1;jettySize=auto;html=1;endSize=12;endArrow=open;endFill=0;" parent="WIyWlLk6GJQsqaUBKTNV-1" source="dkhZk1nOKH57T96soNZL-101" target="dkhZk1nOKH57T96soNZL-88" edge="1">
          <mxGeometry relative="1" as="geometry" />
        </mxCell>
        <mxCell id="dkhZk1nOKH57T96soNZL-238" value="1" style="edgeLabel;html=1;align=center;verticalAlign=middle;resizable=0;points=[];fontSize=15;container=0;" parent="dkhZk1nOKH57T96soNZL-237" vertex="1" connectable="0">
          <mxGeometry x="-0.0164" y="-1" relative="1" as="geometry">
            <mxPoint x="17" y="-14" as="offset" />
          </mxGeometry>
        </mxCell>
        <mxCell id="dkhZk1nOKH57T96soNZL-101" value="SimulationWorker" style="html=1;whiteSpace=wrap;container=0;" parent="WIyWlLk6GJQsqaUBKTNV-1" vertex="1">
          <mxGeometry x="498.35420098846794" y="662.4505494505495" width="131.74629324546953" height="55.49450549450549" as="geometry" />
        </mxCell>
        <mxCell id="dkhZk1nOKH57T96soNZL-106" value="" style="endArrow=open;html=1;endSize=12;startArrow=diamondThin;startSize=14;startFill=0;edgeStyle=orthogonalEdgeStyle;align=left;verticalAlign=bottom;rounded=0;exitX=0.5;exitY=1;exitDx=0;exitDy=0;" parent="WIyWlLk6GJQsqaUBKTNV-1" source="dkhZk1nOKH57T96soNZL-93" target="dkhZk1nOKH57T96soNZL-92" edge="1">
          <mxGeometry x="-0.6829" y="18" relative="1" as="geometry">
            <mxPoint x="558.2388797364085" y="282.86813186813185" as="sourcePoint" />
            <mxPoint x="737.8929159802307" y="282.86813186813185" as="targetPoint" />
            <mxPoint as="offset" />
          </mxGeometry>
        </mxCell>
        <mxCell id="dkhZk1nOKH57T96soNZL-108" value="0...*" style="edgeLabel;html=1;align=center;verticalAlign=middle;resizable=0;points=[];container=0;fontSize=15;" parent="dkhZk1nOKH57T96soNZL-106" vertex="1" connectable="0">
          <mxGeometry x="-0.4625" y="1" relative="1" as="geometry">
            <mxPoint x="23" y="43" as="offset" />
          </mxGeometry>
        </mxCell>
        <mxCell id="dkhZk1nOKH57T96soNZL-224" value="&lt;font style=&quot;font-size: 15px;&quot;&gt;0..*&lt;/font&gt;" style="text;html=1;align=center;verticalAlign=middle;resizable=0;points=[];autosize=1;strokeColor=none;fillColor=none;container=0;" parent="WIyWlLk6GJQsqaUBKTNV-1" vertex="1">
          <mxGeometry x="694.7759472817133" y="632.4835164835165" width="41" height="30" as="geometry" />
        </mxCell>
        <mxCell id="dkhZk1nOKH57T96soNZL-226" value="1" style="text;html=1;align=center;verticalAlign=middle;resizable=0;points=[];autosize=1;strokeColor=none;fillColor=none;container=0;fontSize=15;" parent="WIyWlLk6GJQsqaUBKTNV-1" vertex="1">
          <mxGeometry x="458.830313014827" y="510.61538461538464" width="26" height="30" as="geometry" />
        </mxCell>
        <mxCell id="dkhZk1nOKH57T96soNZL-240" value="" style="endArrow=open;html=1;endSize=12;startArrow=diamondThin;startSize=14;startFill=0;align=left;verticalAlign=bottom;rounded=0;exitX=0.5;exitY=1;exitDx=0;exitDy=0;entryX=0;entryY=0;entryDx=0;entryDy=0;" parent="WIyWlLk6GJQsqaUBKTNV-1" source="dkhZk1nOKH57T96soNZL-99" target="dkhZk1nOKH57T96soNZL-88" edge="1">
          <mxGeometry x="-0.6829" y="18" relative="1" as="geometry">
            <mxPoint x="240.8500823723229" y="327.2637362637363" as="sourcePoint" />
            <mxPoint x="240.8500823723229" y="418.27472527472526" as="targetPoint" />
            <mxPoint as="offset" />
          </mxGeometry>
        </mxCell>
      </root>
    </mxGraphModel>
  </diagram>
</mxfile>
